<?xml version="1.0" standalone="no"?>
<!DOCTYPE svg PUBLIC "-//W3C//DTD SVG 20010904//EN"
 "http://www.w3.org/TR/2001/REC-SVG-20010904/DTD/svg10.dtd">
<svg version="1.0" xmlns="http://www.w3.org/2000/svg"
 width="672.000000pt" height="672.000000pt" viewBox="0 0 672.000000 672.000000"
 preserveAspectRatio="xMidYMid meet">
<metadata>
Created by potrace 1.14, written by Peter Selinger 2001-2017
</metadata>
<g transform="translate(0.000000,672.000000) scale(0.100000,-0.100000)"
fill="#000000" stroke="none">
<path d="M2591 5646 c-9 -10 -9 -16 -1 -21 6 -4 14 -4 17 -1 4 3 1 6 -7 6 -10
0 -10 3 0 15 7 8 10 15 7 15 -2 0 -10 -6 -16 -14z"/>
<path d="M2627 5623 c3 -7 10 -10 16 -6 6 3 7 1 3 -6 -5 -7 -12 -9 -19 -3 -7
4 -22 7 -34 6 -13 0 -23 3 -23 7 0 5 -5 9 -11 9 -5 0 -8 -4 -5 -9 3 -5 -1 -11
-9 -14 -8 -4 -12 -1 -9 6 2 7 -5 12 -20 12 -13 0 -22 -4 -18 -9 3 -5 -2 -6
-12 -3 -12 5 -15 3 -11 -6 4 -6 -1 -3 -9 7 -10 12 -16 15 -16 7 0 -8 -6 -11
-16 -7 -8 3 -12 2 -9 -4 7 -11 -23 -9 -43 4 -7 4 -12 4 -11 -1 4 -21 -2 -43
-12 -43 -5 0 -8 4 -5 8 2 4 0 14 -6 22 -8 12 -9 12 -4 -2 3 -10 1 -20 -4 -23
-6 -4 -10 -1 -10 5 0 6 -10 2 -22 -10 -14 -13 -25 -17 -32 -10 -6 6 -14 3 -22
-8 -12 -16 -13 -15 -23 8 -7 19 -10 20 -10 7 -1 -11 -6 -16 -13 -12 -7 4 -4
-1 7 -10 20 -17 20 -17 -4 -10 -18 6 -22 4 -16 -6 5 -8 -2 -5 -14 5 -21 19
-21 19 -15 1 6 -14 4 -16 -7 -9 -26 16 -40 14 -29 -6 8 -15 5 -17 -30 -13 -28
4 -40 1 -40 -8 0 -7 -6 -5 -14 6 -8 11 -12 24 -8 30 3 5 -1 4 -9 -2 -12 -10
-18 -10 -29 0 -7 6 -10 7 -7 1 4 -6 0 -19 -7 -29 -12 -17 -14 -17 -32 1 -10
10 -34 20 -53 20 -20 1 -28 -1 -21 -6 7 -5 21 -7 31 -5 10 2 20 -3 23 -11 4
-11 2 -13 -11 -5 -12 6 -25 4 -42 -6 -18 -10 -21 -11 -10 -1 15 12 15 15 -8
25 -21 10 -23 10 -13 -3 10 -11 10 -14 1 -14 -7 0 -10 -4 -7 -8 3 -5 -8 -6
-25 -4 -16 2 -36 -1 -44 -8 -8 -7 -20 -8 -27 -4 -20 13 -38 13 -35 1 1 -6 -3
-11 -10 -12 -7 0 -19 -9 -28 -20 -16 -20 -16 -19 -10 5 l6 25 -15 -25 c-10
-16 -16 -20 -16 -10 -1 10 -4 8 -9 -5 -5 -11 -13 -21 -20 -21 -6 -1 -16 -2
-22 -3 -5 0 -7 -7 -3 -13 4 -7 3 -10 -1 -5 -5 4 -17 -1 -28 -10 -11 -10 -17
-13 -14 -7 4 7 1 14 -7 17 -9 4 -13 -2 -12 -16 1 -14 -5 -22 -16 -22 -9 0 -27
-9 -41 -21 -19 -17 -26 -19 -33 -8 -7 10 -13 11 -24 3 -12 -9 -11 -10 5 -5 20
6 20 6 1 -9 -11 -8 -24 -15 -29 -15 -5 0 -3 -8 4 -17 12 -16 12 -17 -2 -6 -9
7 -20 9 -24 5 -5 -4 -5 -1 0 6 6 12 3 12 -16 1 -13 -7 -28 -12 -32 -11 -5 1
-6 -2 -2 -8 5 -8 12 -7 23 2 12 9 11 6 -2 -10 -20 -23 -32 -30 -21 -12 3 6 1
10 -4 10 -6 0 -11 -5 -11 -11 0 -5 -6 -7 -12 -3 -10 6 -10 4 0 -8 12 -14 10
-16 -10 -10 -21 5 -22 4 -8 -13 14 -17 14 -17 -6 -7 -18 9 -25 8 -38 -7 -14
-15 -14 -20 -4 -24 7 -3 1 -6 -14 -6 -16 -1 -28 -6 -28 -12 0 -5 4 -7 10 -4 6
3 7 -1 4 -10 -6 -14 -8 -14 -21 2 -8 10 -12 13 -9 7 3 -7 -1 -14 -9 -18 -8 -3
-15 -11 -14 -18 0 -10 2 -10 6 0 2 6 10 12 16 12 7 0 7 -4 -1 -12 -7 -7 -20
-13 -30 -13 -10 0 -16 -7 -16 -17 1 -10 -3 -15 -9 -11 -6 4 -8 0 -5 -9 4 -8 0
-15 -8 -15 -7 0 -11 4 -8 9 3 4 0 8 -7 8 -6 0 -9 -8 -6 -20 3 -13 1 -18 -6
-13 -7 4 -8 0 -3 -12 5 -15 4 -16 -9 -5 -8 7 -12 17 -8 23 3 6 1 7 -5 3 -9 -5
-9 -13 -2 -27 6 -10 9 -19 8 -20 -2 0 -11 -2 -21 -4 -28 -5 -49 -27 -42 -43 5
-13 3 -13 -11 -1 -16 13 -16 12 -4 -11 7 -14 9 -22 5 -18 -5 4 -15 2 -23 -5
-13 -10 -15 -9 -9 6 4 11 3 16 -3 12 -13 -8 -13 -35 0 -35 6 0 5 -6 -2 -14 -7
-8 -17 -11 -23 -8 -5 3 -4 7 3 10 7 2 9 8 6 13 -10 17 -32 -24 -28 -51 l4 -25
-16 25 c-9 15 -13 17 -10 6 5 -14 2 -17 -9 -12 -11 4 -14 2 -8 -7 11 -17 13
-38 3 -32 -5 3 -11 -1 -14 -7 -3 -7 -3 -3 -1 9 3 12 0 25 -6 29 -7 4 -9 3 -6
-3 9 -14 -12 -73 -25 -73 -5 0 -7 -4 -4 -9 3 -4 -6 -7 -19 -5 -14 1 -23 -2
-19 -7 3 -5 10 -6 16 -3 7 5 8 2 4 -5 -5 -7 -14 -10 -22 -7 -8 3 -14 -1 -14
-10 0 -8 4 -12 10 -9 5 3 10 1 10 -4 0 -14 -13 -14 -27 0 -8 8 -13 7 -18 -2
-5 -7 -4 -10 2 -6 6 4 14 0 17 -9 4 -12 1 -14 -14 -9 -19 6 -29 -8 -12 -18 4
-2 1 -2 -6 -1 -6 2 -12 -1 -12 -7 0 -6 -6 -7 -12 -3 -7 4 -4 -3 7 -16 11 -13
15 -20 8 -17 -6 4 -19 0 -27 -9 -9 -8 -16 -11 -16 -5 0 5 8 14 17 20 16 9 16
10 -4 8 -12 0 -20 -4 -17 -8 2 -4 0 -11 -6 -14 -8 -5 -7 -12 2 -23 12 -14 10
-14 -9 -3 -21 11 -27 8 -24 -11 0 -5 -3 -8 -9 -8 -5 0 -10 -7 -10 -16 0 -14
-3 -13 -17 3 -10 10 -15 14 -12 8 9 -17 5 -38 -8 -42 -7 -3 -13 0 -13 7 0 6 4
8 10 5 6 -4 7 1 3 11 -6 16 -8 15 -16 -4 -6 -12 -18 -22 -29 -22 -10 0 -18 -4
-18 -8 0 -4 -9 -8 -20 -9 -13 -1 -18 2 -14 9 4 7 2 8 -4 4 -9 -5 -9 -13 -2
-27 13 -23 7 -25 -14 -3 -15 14 -16 14 -16 0 0 -9 5 -16 12 -16 6 0 8 -3 5 -6
-4 -4 -13 -1 -21 5 -11 9 -16 9 -22 0 -4 -7 -3 -9 3 -6 5 3 10 0 10 -8 0 -11
-5 -12 -21 -3 -20 10 -20 10 -6 -7 14 -17 14 -18 -10 -5 -23 12 -24 12 -12 -3
12 -14 11 -16 -8 -12 -21 4 -21 3 -7 -13 15 -16 14 -18 -11 -17 -20 0 -27 -5
-26 -18 1 -12 -2 -15 -10 -8 -8 6 -17 6 -26 -1 -12 -8 -12 -9 3 -4 9 3 17 1
17 -4 0 -6 -5 -10 -11 -10 -5 0 -7 -6 -3 -12 6 -10 4 -10 -7 0 -7 6 -18 12
-23 12 -6 0 -4 -5 4 -10 10 -6 11 -10 3 -10 -7 0 -13 -5 -13 -11 0 -5 6 -7 13
-3 9 6 9 5 0 -8 -7 -8 -9 -19 -5 -23 4 -5 1 -5 -6 -1 -7 4 -9 13 -6 19 4 7 4
9 -1 5 -4 -4 -14 -3 -22 3 -9 9 -13 8 -13 0 0 -6 5 -11 10 -11 15 0 12 -26 -5
-40 -8 -7 -12 -17 -8 -23 3 -6 1 -7 -5 -3 -9 5 -7 14 4 32 15 22 15 24 1 18
-9 -3 -15 -11 -14 -17 1 -7 -4 -11 -11 -9 -8 1 -11 -2 -8 -7 3 -5 -1 -14 -9
-21 -11 -9 -12 -16 -5 -25 8 -9 6 -14 -5 -19 -9 -3 -13 -2 -10 3 3 5 0 13 -7
17 -7 4 -10 4 -6 -1 4 -4 0 -14 -10 -22 -9 -8 -11 -12 -4 -8 18 9 15 -10 -5
-26 -9 -8 -14 -9 -10 -3 3 6 0 11 -8 11 -12 0 -14 -296 -14 -1994 l0 -1994 82
4 c45 2 90 0 99 -5 9 -4 19 -5 22 0 5 9 170 7 185 -2 5 -4 12 -3 15 2 6 10 88
8 104 -2 6 -3 13 -3 15 1 6 10 171 8 186 -1 5 -4 12 -3 15 2 6 10 88 8 104 -2
6 -3 13 -3 15 1 6 10 171 8 186 -1 5 -4 12 -3 15 2 6 10 88 8 104 -2 6 -3 13
-2 17 4 4 7 12 7 24 0 10 -5 21 -7 24 -4 9 9 283 8 297 -1 8 -5 11 -4 7 2 -4
6 15 8 51 6 31 -2 75 -4 97 -4 22 1 111 1 197 2 87 0 162 -2 167 -5 5 -4 12
-2 15 2 5 8 78 7 119 -2 9 -2 17 -1 17 2 0 6 275 7 290 1 3 -1 10 0 15 1 12 2
88 3 95 0 13 -4 80 -4 80 0 0 7 307 3 325 -4 8 -3 17 -2 19 3 3 4 29 6 58 4
29 -3 58 -4 63 -4 13 0 286 1 305 0 8 0 39 1 68 3 28 2 52 1 52 -2 0 -3 16 -5
35 -5 19 0 35 2 35 5 0 3 60 4 132 2 73 -1 151 -2 173 -2 22 1 47 1 55 1 8 0
44 0 80 0 36 0 83 0 105 0 22 0 58 0 80 0 22 0 47 0 55 0 8 0 44 0 80 0 36 0
83 0 105 0 22 0 58 0 80 0 22 0 47 0 55 0 8 0 44 0 80 0 36 0 83 0 105 0 22 0
58 0 80 0 22 0 47 0 55 0 8 0 44 0 80 0 36 0 83 0 105 0 22 0 58 0 80 0 22 0
47 0 55 0 8 0 44 0 80 0 36 0 83 0 105 0 22 0 58 0 80 0 22 0 47 0 55 0 8 0
44 0 80 0 36 0 83 0 105 0 22 0 58 0 80 0 22 0 47 0 55 0 8 0 44 0 80 0 36 0
88 0 115 -1 28 0 56 -1 63 -1 6 0 31 0 55 1 23 0 61 -1 85 -3 23 -1 42 0 42 3
0 3 49 4 110 4 l109 -1 0 1333 c0 958 -3 1335 -11 1340 -7 4 -8 2 -4 -4 4 -7
2 -12 -4 -12 -6 0 -8 -5 -4 -12 6 -10 4 -10 -8 0 -14 11 -16 10 -14 -12 2 -14
0 -25 -3 -24 -23 2 -41 -4 -36 -12 3 -5 1 -10 -5 -10 -6 0 -8 -5 -4 -12 5 -9
2 -8 -9 1 -15 12 -17 12 -10 -4 5 -14 3 -17 -10 -12 -11 4 -14 2 -10 -8 3 -8
9 -13 13 -10 5 3 11 1 14 -4 7 -11 -13 -9 -33 3 -10 6 -12 5 -7 -2 4 -7 1 -12
-6 -12 -8 0 -29 -14 -48 -32 -19 -18 -39 -31 -44 -30 -5 2 -4 -3 3 -11 9 -12
8 -16 -4 -21 -10 -3 -13 -11 -9 -18 5 -8 0 -7 -11 2 -17 14 -18 13 -12 -2 4
-13 2 -15 -10 -11 -12 5 -15 2 -10 -10 4 -12 2 -14 -10 -10 -10 4 -14 2 -9 -5
3 -6 1 -14 -5 -18 -7 -4 -9 -3 -5 4 4 6 -1 10 -13 9 -15 -1 -17 -5 -11 -17 7
-14 3 -16 -26 -14 -33 3 -36 1 -38 -36 -1 -8 -6 -15 -11 -15 -6 0 -17 -4 -25
-10 -13 -8 -13 -7 -1 8 7 9 18 14 24 10 6 -4 7 -1 3 6 -6 9 -12 9 -25 -3 -10
-9 -22 -13 -26 -9 -5 5 -1 -5 10 -22 15 -25 16 -28 2 -16 -15 12 -21 9 -18
-11 0 -4 -6 -5 -14 -2 -7 3 -19 -3 -26 -14 -10 -16 -18 -18 -40 -12 -24 7 -27
6 -25 -14 2 -19 -1 -22 -23 -19 -26 4 -26 4 -6 -12 20 -17 19 -17 -5 -10 -39
11 -42 11 -47 -5 -4 -13 -3 -13 6 0 6 8 11 10 11 4 0 -6 -8 -18 -17 -25 -9 -8
-14 -9 -10 -3 4 7 0 14 -8 17 -9 4 -12 1 -8 -9 4 -10 -2 -17 -16 -21 -11 -3
-21 -12 -21 -20 0 -8 -5 -11 -10 -8 -6 4 -8 10 -5 15 3 5 1 11 -4 15 -6 3 -8
-3 -6 -15 3 -16 -2 -20 -28 -21 -18 -1 -36 -1 -40 0 -5 1 -6 -3 -2 -9 3 -5 -2
-10 -12 -11 -11 0 -13 -3 -5 -6 6 -2 10 -9 6 -14 -3 -5 -14 -4 -27 3 -21 10
-21 10 -7 -7 14 -17 14 -18 -10 -5 -22 12 -24 12 -12 -2 10 -13 9 -18 -5 -29
-16 -13 -17 -12 -4 4 8 10 9 17 3 17 -6 0 -14 -5 -18 -11 -3 -6 -17 -8 -33 -4
-25 6 -25 6 -6 -9 16 -13 17 -15 3 -10 -20 7 -25 -11 -5 -20 6 -3 0 -3 -15 -1
-15 2 -33 7 -40 11 -10 6 -11 5 -1 -8 16 -18 5 -32 -14 -17 -7 6 -13 8 -13 3
0 -5 -5 -2 -11 6 -8 11 -9 9 -3 -10 6 -23 6 -24 -11 -10 -17 14 -17 13 -7 -6
10 -18 8 -20 -11 -18 -12 1 -22 3 -22 4 0 1 -10 3 -22 4 -13 2 -19 -2 -16 -7
4 -6 0 -8 -10 -4 -12 4 -14 2 -10 -11 6 -14 4 -15 -9 -4 -12 10 -18 10 -28 -2
-6 -9 -9 -20 -5 -25 3 -7 0 -8 -9 -5 -9 3 -12 12 -8 22 3 9 -7 4 -22 -13 -25
-27 -26 -28 -15 -5 12 25 12 25 -9 7 -12 -12 -26 -16 -34 -11 -9 6 -9 3 1 -10
12 -15 12 -17 0 -14 -8 2 -18 8 -22 13 -5 6 -7 0 -4 -13 5 -20 3 -21 -10 -11
-12 10 -16 10 -24 -2 -6 -9 -9 -10 -9 -2 0 8 -13 11 -37 9 -26 -2 -38 -8 -37
-18 1 -8 -4 -15 -10 -15 -6 0 -20 -4 -30 -9 -12 -5 -17 -4 -13 3 4 6 -2 10
-14 9 -11 0 -24 -8 -29 -16 -7 -10 -10 -11 -10 -2 0 6 -5 12 -11 12 -6 0 -9
-6 -6 -13 4 -10 -2 -13 -19 -9 -13 2 -24 9 -24 15 0 6 -3 7 -6 4 -4 -4 -1 -14
6 -22 11 -13 11 -16 -1 -13 -8 2 -13 -3 -11 -12 3 -12 1 -12 -15 1 -10 9 -25
20 -33 24 -12 7 -13 6 -3 -7 7 -8 10 -18 6 -21 -9 -10 -34 14 -27 27 3 6 -4 0
-15 -13 -13 -15 -21 -18 -22 -10 0 8 -4 5 -9 -6 -7 -17 -9 -17 -9 -2 -1 22 -7
21 -41 -3 -21 -15 -31 -17 -36 -9 -4 7 -3 9 3 6 6 -4 16 0 22 7 9 10 9 16 1
21 -6 4 -10 3 -9 -2 4 -20 -2 -24 -18 -12 -11 10 -14 10 -9 2 4 -8 2 -13 -8
-13 -8 0 -17 6 -19 13 -4 9 -6 9 -6 0 -1 -7 -8 -13 -17 -13 -9 0 -12 5 -8 12
4 7 3 8 -5 4 -6 -4 -9 -12 -6 -17 4 -5 1 -9 -5 -9 -6 0 -9 -4 -6 -9 7 -10 -20
-9 -30 2 -4 4 -13 2 -21 -5 -11 -9 -13 -8 -11 3 2 8 -6 14 -22 16 -14 1 -17
-1 -7 -3 20 -6 22 -20 5 -30 -7 -4 -8 -3 -4 4 4 7 3 12 -3 12 -5 0 -17 3 -26
6 -9 4 -15 3 -13 -2 2 -5 0 -10 -5 -11 -4 -2 -7 0 -6 4 1 16 -38 20 -61 5
l-25 -15 19 22 c19 21 19 21 1 15 -14 -6 -16 -4 -10 7 7 12 6 12 -7 1 -9 -8
-14 -21 -12 -30 5 -14 3 -14 -10 2 -8 10 -26 19 -40 18 -14 0 -24 3 -22 7 2 3
-8 7 -22 8 l-27 1 28 -14 c28 -15 34 -28 17 -39 -6 -4 -7 1 -3 11 4 12 3 15
-5 10 -7 -4 -12 -2 -12 3 0 6 -7 11 -16 11 -9 0 -12 -5 -8 -12 5 -9 2 -9 -9 1
-19 15 -23 26 -5 15 7 -4 8 -3 4 5 -6 9 -11 9 -24 -1 -12 -10 -14 -10 -8 0 4
6 3 12 -3 12 -5 0 -12 -6 -14 -12 -4 -10 -6 -10 -6 0 -1 6 -6 12 -12 12 -5 0
-7 -4 -4 -10 3 -5 1 -10 -4 -10 -6 0 -11 4 -11 9 0 5 -7 12 -16 15 -12 5 -15
2 -10 -9 3 -9 2 -13 -4 -10 -6 3 -10 14 -11 23 0 12 -3 11 -9 -6 -11 -27 -20
-29 -13 -3 3 11 -2 21 -13 25 -13 5 -14 4 -6 -7 9 -10 8 -14 -3 -14 -8 0 -15
4 -15 9 0 5 -11 6 -25 4 -15 -3 -23 -1 -20 5 4 5 11 7 16 4 5 -4 9 -1 9 5 0
16 -34 8 -42 -10 -5 -12 -7 -11 -7 4 -1 16 -3 17 -18 5 -11 -10 -14 -10 -9 -1
5 8 0 12 -14 12 -13 0 -19 -4 -14 -12 5 -7 3 -8 -5 -4 -7 5 -10 15 -6 24 3 9
3 13 -1 10 -3 -4 -15 3 -26 15 l-19 22 16 -27 c11 -18 13 -28 5 -33 -6 -3 -9
-1 -8 6 2 7 -3 14 -9 15 -7 1 -17 2 -23 3 -5 0 -10 9 -11 19 0 15 -1 15 -8 -2
-7 -18 -8 -18 -14 -3 -3 9 -12 17 -19 17 -9 0 -9 -3 2 -11 13 -9 13 -10 -2 -6
-9 3 -19 1 -22 -6 -3 -7 -3 -1 0 13 5 20 4 23 -7 13 -16 -16 -29 -17 -29 -2 0
5 4 7 10 4 6 -3 7 1 4 10 -6 14 -8 14 -20 -2 -13 -17 -16 -16 -39 12 -14 17
-25 26 -25 21 0 -5 -7 -3 -15 4 -8 7 -15 9 -15 4 0 -5 -4 -2 -10 6 -5 9 -22
13 -44 12 -38 -3 -44 5 -23 27 10 11 10 13 0 7 -8 -4 -13 -2 -13 6 0 9 -2 10
-8 1 -4 -6 -16 -13 -27 -15 -15 -2 -19 2 -17 16 2 11 -1 15 -7 11 -6 -3 -18 1
-27 9 -9 9 -20 14 -25 11 -5 -4 -9 -1 -9 4 0 6 5 11 12 11 6 0 8 3 5 6 -4 4
-13 2 -20 -4 -10 -9 -18 -8 -33 4 -18 15 -18 15 2 5 15 -7 21 -7 21 3 0 8 -12
12 -29 11 -15 -1 -33 4 -40 12 -9 11 -13 12 -20 1 -7 -10 -8 -10 -5 2 2 8 10
14 16 13 6 -2 11 2 11 8 0 6 -9 9 -20 6 -11 -3 -23 -1 -26 4 -3 5 -11 6 -17 2
-9 -5 -9 -3 0 8 8 10 9 19 1 29 -8 12 -9 12 -4 -2 7 -23 -3 -23 -20 -1 -8 11
-13 13 -14 6 0 -7 -6 -13 -12 -13 -7 1 -2 9 11 20 l23 20 -30 -6 c-23 -5 -33
-1 -44 15 -8 11 -18 18 -23 13 -5 -4 -4 -1 0 7 7 12 11 11 23 -7 8 -12 22 -22
31 -21 13 0 13 2 1 6 -8 4 -21 15 -30 26 -9 11 -29 20 -46 20 -16 0 -23 2 -16
4 15 6 16 33 1 33 -5 0 -7 4 -4 10 3 6 -1 7 -9 4 -10 -4 -20 3 -27 20 -7 14
-16 26 -20 26 -4 0 -11 9 -14 20 -4 11 -15 20 -27 20 -14 0 -18 5 -14 16 4 10
2 14 -6 11 -7 -2 -12 -10 -10 -16 1 -7 -2 -10 -8 -6 -6 3 -8 10 -5 15 3 5 1
11 -4 14 -5 3 -7 16 -4 29 5 18 3 20 -8 10 -16 -16 -29 -17 -29 -2 0 5 5 7 10
4 6 -3 10 -1 10 4 0 6 -4 11 -10 11 -5 0 -10 5 -10 11 0 5 5 7 12 3 7 -4 8 -3
4 5 -6 9 -11 9 -24 -1 -13 -11 -14 -11 -4 8 9 16 8 21 -3 21 -8 0 -12 -4 -9
-9 3 -4 0 -8 -6 -8 -7 0 -9 8 -5 20 4 11 3 20 -2 19 -20 -3 -23 3 -12 24 l12
22 -23 -20 c-14 -11 -20 -14 -15 -5 14 23 13 57 -1 57 -10 0 -11 -4 -3 -13 7
-8 6 -14 -2 -20 -7 -4 -9 -3 -5 4 3 6 1 14 -5 17 -5 4 -8 13 -5 21 3 8 2 14
-2 14 -4 0 -16 13 -27 28 -13 19 -14 23 -3 14 13 -10 18 -10 24 -1 4 7 3 9 -3
6 -13 -8 -26 20 -16 36 3 7 3 9 -2 5 -4 -4 -15 -2 -24 4 -13 10 -14 10 -3 -2
15 -17 16 -30 1 -30 -5 0 -8 4 -4 9 3 5 1 12 -4 16 -6 3 -7 13 -4 22 4 9 2 14
-3 11 -5 -4 -10 5 -10 18 -2 23 -1 24 13 7 13 -17 13 -17 4 3 -5 11 -18 27
-28 35 -16 13 -17 12 -4 -3 7 -10 9 -18 3 -18 -18 0 -21 29 -4 40 15 11 15 11
-2 6 -13 -5 -17 -2 -12 9 3 8 1 15 -4 15 -5 0 -7 7 -4 15 5 12 2 14 -12 8 -17
-6 -18 -5 -4 12 13 17 13 18 -1 13 -13 -5 -16 -2 -11 14 3 11 -1 24 -9 29 -11
7 -10 9 6 9 18 1 18 2 -3 11 -13 5 -21 13 -17 18 3 5 -4 16 -15 24 -17 12 -18
16 -6 20 17 7 13 46 -6 59 -10 6 -9 8 2 8 12 1 11 3 -2 11 -30 17 -40 46 -22
63 14 15 14 16 -5 16 -24 0 -24 0 -12 33 7 18 5 31 -6 47 -15 21 -15 22 8 16
21 -6 22 -5 6 4 -12 7 -15 16 -9 23 11 16 10 37 -3 37 -5 0 -10 -9 -10 -20 0
-10 -7 -25 -15 -32 -12 -11 -12 -11 -2 4 10 13 10 17 0 21 -11 4 -10 6 0 6 8
1 10 6 6 13 -13 21 -11 56 3 51 7 -3 10 -9 7 -14 -3 -5 0 -9 5 -9 14 0 14 17
1 25 -6 4 -7 11 -4 17 4 6 2 8 -3 5 -6 -4 -13 5 -16 20 -5 26 -4 26 9 9 12
-17 13 -16 9 12 -2 18 1 34 6 37 5 4 9 11 9 18 0 6 -6 2 -14 -8 -8 -11 -13
-22 -11 -26 2 -3 -2 -6 -9 -6 -7 0 -13 6 -13 13 0 7 5 10 10 7 6 -4 8 4 5 20
-3 14 -1 32 4 39 7 10 8 8 4 -4 -3 -10 -1 -18 4 -18 15 0 12 18 -7 47 -10 15
-13 24 -6 20 16 -10 28 12 14 26 -6 6 -11 15 -11 21 0 5 9 -1 20 -14 18 -21
20 -21 17 -4 -1 10 -6 24 -10 31 -4 6 -2 15 4 19 8 4 9 3 5 -4 -5 -8 -1 -10 9
-5 13 4 14 7 3 14 -10 6 -10 11 -1 20 13 13 6 42 -8 33 -5 -3 -9 -3 -9 0 0 3
9 10 20 16 16 9 18 8 14 -5 -4 -8 -2 -15 4 -15 6 0 9 8 7 18 -2 9 -4 17 -5 17
-1 0 -3 10 -4 22 -2 15 2 19 12 15 11 -4 13 -2 7 9 -7 12 -6 12 7 1 14 -11 16
-10 11 7 -3 13 -1 21 6 21 7 0 9 4 6 10 -3 5 0 20 7 32 7 13 11 27 10 31 -1 4
7 3 18 -3 11 -6 21 -8 21 -5 1 3 2 8 3 13 3 15 18 32 25 28 3 -3 7 4 7 14 0
10 -4 17 -7 14 -4 -2 -11 0 -14 6 -4 6 -3 10 2 9 4 -1 19 -1 33 0 18 1 21 4
11 10 -9 6 -10 11 -2 15 6 4 9 11 6 16 -3 4 3 7 13 6 10 0 17 6 16 16 -1 10 4
14 12 11 8 -3 11 -10 7 -16 -4 -6 -1 -7 6 -3 9 6 8 13 -6 29 -10 11 -13 17 -6
14 6 -4 13 -4 16 0 2 5 2 2 0 -5 -2 -9 3 -11 16 -7 21 6 38 -10 21 -20 -6 -3
-8 -16 -6 -28 3 -17 -1 -23 -14 -23 -10 0 -16 6 -13 13 3 7 10 10 16 6 6 -4 7
-1 2 7 -6 10 -11 9 -22 -6 -7 -10 -11 -24 -8 -32 2 -7 -2 -15 -10 -18 -8 -4
-12 -11 -9 -16 4 -6 9 -6 14 2 5 8 9 7 13 -5 4 -9 3 -13 -2 -10 -5 3 -12 1
-15 -4 -4 -5 2 -12 11 -15 10 -3 6 -4 -9 -2 -15 2 -25 -1 -22 -5 3 -5 12 -9
19 -9 17 0 38 -34 27 -44 -3 -4 1 -4 11 0 9 3 14 10 11 15 -3 5 -1 9 5 9 5 0
11 -6 14 -12 3 -10 7 -10 20 1 10 7 17 18 17 24 0 6 -7 2 -15 -9 -8 -10 -15
-14 -15 -8 0 19 24 34 40 24 18 -11 31 -3 24 14 -3 8 0 17 5 21 6 3 8 12 4 18
-4 8 -1 7 9 -1 10 -8 19 -9 22 -3 4 5 14 9 24 8 13 -1 19 -10 21 -36 1 -19 4
-39 7 -45 3 -6 -2 -2 -10 8 -19 23 -21 14 -4 -17 10 -20 10 -21 -5 -8 -15 12
-17 11 -17 -3 0 -9 -5 -16 -11 -16 -5 0 -7 6 -3 13 4 7 3 9 -2 4 -5 -5 -9 -14
-9 -20 0 -7 -8 -11 -18 -11 -15 2 -16 -1 -5 -14 11 -14 10 -15 -6 -8 -19 7
-19 6 -1 -14 10 -11 14 -20 9 -20 -5 -1 2 -9 15 -20 28 -24 45 -17 30 13 -9
19 -7 18 10 -3 11 -14 21 -21 21 -16 0 5 8 2 17 -5 16 -12 15 -10 -1 16 l-19
30 26 -24 c25 -23 26 -23 20 -2 -3 12 -1 21 6 21 6 0 10 -3 9 -7 -2 -5 2 -8 7
-8 6 0 9 6 8 13 0 8 5 11 13 8 22 -9 27 14 7 37 -16 19 -15 19 17 -3 22 -15
30 -18 21 -7 -15 19 -7 52 10 41 8 -4 8 0 0 15 -10 18 -9 22 14 31 14 5 25 15
25 22 0 7 11 18 25 25 14 6 23 7 19 2 -8 -13 10 -11 25 4 11 10 13 9 8 -5 -4
-12 -1 -16 13 -13 13 2 17 -1 14 -10 -3 -8 -2 -20 2 -27 13 -20 13 -52 0 -67
-9 -12 -8 -13 3 -7 10 7 12 3 7 -15 -7 -23 -7 -23 8 -5 9 11 16 15 16 9 0 -14
-25 -34 -33 -26 -4 3 -7 -4 -7 -16 0 -14 -4 -20 -12 -15 -7 5 -9 2 -5 -9 3 -8
0 -18 -8 -21 -7 -2 -13 -11 -11 -18 3 -25 18 -39 33 -34 11 5 13 2 9 -9 -5
-14 -3 -14 15 -1 12 8 29 12 38 9 13 -4 13 -3 2 5 -8 6 -19 9 -25 8 -6 -2 -8
-1 -3 1 4 3 4 9 1 15 -4 6 2 6 14 -1 27 -14 33 -14 30 2 -2 6 3 11 10 9 11 -2
17 11 13 32 -1 5 6 3 15 -5 16 -13 16 -12 4 11 -12 23 -12 24 4 11 14 -12 16
-12 10 4 -5 13 -4 16 4 11 8 -5 10 -2 6 8 -3 9 -1 16 5 16 6 0 11 -5 11 -12 0
-6 3 -8 6 -5 4 4 -1 19 -11 34 -18 27 -18 28 0 13 17 -14 18 -13 11 5 -6 16
-5 18 5 8 7 -7 17 -13 23 -13 5 0 -1 8 -12 19 -12 10 -22 22 -22 26 0 5 10 0
22 -11 12 -10 18 -13 14 -6 -4 7 -2 12 6 12 11 0 10 2 0 9 -11 7 -10 9 3 15 9
3 13 10 10 16 -6 9 7 14 27 11 4 0 5 6 1 15 -3 8 -2 14 3 13 20 -3 35 2 30 10
-3 5 2 15 12 22 15 13 16 12 3 -3 -9 -13 -10 -18 -2 -18 7 0 10 -4 7 -8 -3 -5
14 -8 38 -8 34 1 42 -2 44 -18 2 -27 9 -31 29 -15 9 8 14 9 10 2 -4 -6 0 -16
9 -21 15 -8 15 -10 0 -15 -11 -5 -15 -3 -10 5 4 7 3 8 -5 4 -16 -10 -3 -27 17
-24 13 2 17 -5 17 -34 0 -20 4 -36 10 -35 5 1 9 -4 7 -12 -3 -12 -1 -12 14 0
16 12 17 12 11 -3 -5 -14 -1 -18 16 -19 21 0 21 -1 2 -9 -16 -7 -17 -9 -3 -9
9 -1 20 4 23 9 4 6 11 7 17 4 7 -4 8 -2 4 5 -4 6 -12 9 -17 6 -5 -4 -9 -1 -9
5 0 7 6 10 14 7 8 -3 22 1 33 8 10 8 14 15 9 15 -5 0 -3 7 4 16 8 8 9 14 4 12
-5 -2 -9 2 -9 7 0 6 4 8 10 7 5 -2 7 0 3 4 -4 4 -2 14 5 22 10 13 9 14 -3 7
-23 -15 -43 -15 -32 -2 6 7 8 28 5 47 -2 19 -5 42 -6 51 -1 9 -7 15 -14 12 -7
-3 -10 -9 -7 -14 3 -5 1 -9 -5 -9 -5 0 -9 9 -8 19 0 11 4 18 8 15 4 -2 6 4 4
13 -1 11 -9 17 -19 15 -9 -2 -16 1 -15 5 4 21 -2 33 -13 27 -7 -4 -8 -3 -4 5
4 6 13 9 19 5 7 -3 5 0 -3 8 -17 15 -26 43 -10 33 5 -3 10 -1 10 4 0 6 -6 11
-12 11 -7 0 0 12 15 26 16 13 27 30 24 37 -8 22 32 17 49 -6 l16 -22 -7 23
c-7 26 0 28 22 7 13 -13 13 -18 1 -33 -12 -15 -11 -16 4 -4 11 9 18 10 23 2 5
-8 11 -7 23 2 12 10 14 10 8 1 -7 -12 5 -18 27 -14 4 1 3 -8 -4 -20 -6 -12 -7
-19 -1 -15 5 3 20 -3 33 -13 28 -21 57 -18 39 5 -9 10 -8 12 9 9 11 -2 23 1
27 6 3 5 2 9 -3 8 -27 -5 -32 2 -21 25 8 20 8 28 -4 40 -9 8 -17 13 -19 11 -3
-2 -5 10 -6 27 0 17 -6 34 -13 38 -9 6 -9 9 0 15 8 5 7 12 -6 26 -13 14 -21
16 -36 8 -15 -8 -19 -8 -14 0 4 6 2 11 -5 11 -8 0 -9 4 0 13 8 11 4 13 -21 9
-24 -4 -30 -1 -26 9 4 9 -1 15 -12 15 -11 0 -16 -6 -13 -16 3 -11 1 -10 -10 3
-15 18 -15 18 -20 0 -4 -17 -5 -17 -6 0 -1 14 -5 16 -20 7 -14 -7 -22 -7 -27
2 -4 7 -3 8 4 4 24 -15 11 2 -14 19 -15 9 -23 12 -20 6 4 -6 0 -12 -8 -12 -24
-2 -30 -4 -43 -12 -6 -4 -15 -2 -19 4 -5 8 -3 9 7 4 8 -5 10 -4 6 0 -13 15
-39 15 -33 0 5 -14 -18 -15 -31 0 -4 4 -2 5 5 1 6 -4 12 -2 12 3 0 6 -7 11
-16 11 -8 0 -13 4 -10 9 7 11 -21 8 -31 -4 -4 -4 -3 -5 3 -2 7 4 14 0 17 -8 5
-12 2 -12 -18 -3 -13 6 -22 15 -19 19 3 5 -3 6 -12 2 -13 -5 -15 -3 -9 7 5 9
4 11 -4 6 -6 -4 -9 -11 -6 -16 9 -15 -20 -18 -39 -4 -14 10 -24 11 -40 2 -19
-10 -20 -10 -7 6 8 9 11 19 7 23 -3 3 -6 1 -6 -5 0 -6 -7 -9 -15 -6 -11 5 -14
2 -9 -12 6 -17 5 -17 -9 1 -11 15 -12 22 -4 28 8 6 7 7 -3 4 -8 -2 -14 -11
-14 -20 1 -9 -2 -14 -7 -11 -5 3 -9 12 -9 20 0 8 -9 14 -21 14 -11 0 -18 4
-15 9 3 4 -5 8 -17 8 -57 -1 -70 3 -59 16 8 9 1 12 -29 11 -21 -1 -39 3 -39 8
0 6 7 7 16 4 8 -3 12 -2 9 4 -3 6 -1 10 6 10 7 0 10 2 7 5 -3 3 -18 1 -33 -5
-25 -9 -27 -9 -15 5 11 13 10 15 -2 10 -8 -3 -21 1 -28 10 -7 9 -9 15 -4 14
21 -4 24 2 10 17 -18 18 -21 34 -5 34 5 0 8 -4 4 -9 -3 -5 -1 -12 4 -15 11 -7
9 13 -2 32 -5 7 -3 12 5 12 10 0 10 2 1 8 -9 5 -7 16 9 40 24 38 28 40 20 10
-5 -19 -4 -20 10 -7 9 7 14 17 11 22 -2 4 6 7 19 7 16 0 19 3 10 9 -15 9 -13
42 3 53 6 5 5 8 -3 8 -7 0 -11 4 -7 9 3 5 0 13 -6 17 -8 4 -9 3 -5 -4 4 -7 2
-12 -3 -12 -6 0 -11 12 -11 26 0 14 -4 23 -10 19 -5 -3 -10 -1 -10 4 0 6 6 11
13 11 8 0 7 3 -3 10 -9 6 -17 5 -23 -3 -6 -8 -7 -6 -4 5 3 9 1 19 -6 22 -7 3
-1 3 13 0 l25 -6 -25 18 c-14 11 -29 17 -35 16 -5 -2 -2 5 8 16 9 10 17 28 17
40 0 24 14 29 26 10 5 -7 11 -5 21 7 10 15 13 15 13 4 0 -8 -6 -21 -12 -29 -7
-8 -1 -4 14 9 24 21 28 22 34 8 3 -9 3 -20 0 -25 -3 -5 6 -8 19 -6 14 1 23 -2
19 -7 -3 -5 -10 -6 -16 -3 -6 4 -8 2 -5 -4 4 -5 17 -9 30 -8 19 2 22 -2 22
-33 0 -25 4 -35 14 -33 7 1 21 -3 30 -10 9 -7 5 0 -9 16 l-25 29 28 -18 c29
-19 29 -19 30 37 1 15 4 25 8 22 4 -2 10 3 13 12 10 25 7 27 -11 13 -16 -13
-16 -11 1 15 10 16 13 25 7 22 -6 -4 -11 -2 -11 4 0 6 -5 8 -12 4 -7 -4 -8 -3
-4 5 4 6 11 9 16 6 5 -3 12 0 16 6 5 8 3 9 -6 4 -10 -6 -12 -4 -7 8 4 12 2 14
-10 10 -13 -5 -14 -3 -3 16 10 20 9 23 -9 28 -11 3 -18 10 -14 16 4 7 0 8 -12
3 -15 -5 -16 -4 -5 9 12 15 7 30 -10 30 -10 0 -50 45 -50 55 0 4 -10 7 -22 6
-16 -1 -24 7 -29 28 -5 16 -5 34 -2 39 4 6 1 7 -6 3 -7 -5 -10 -14 -8 -20 3
-7 -1 -13 -7 -13 -8 0 -12 11 -10 26 3 25 2 26 -13 6 -15 -20 -15 -20 -10 2 3
13 0 26 -5 30 -7 3 -8 1 -4 -5 4 -7 2 -12 -3 -12 -10 0 -15 14 -12 33 1 5 -3
6 -8 2 -6 -3 -7 -13 -4 -23 4 -13 2 -13 -10 3 -8 11 -13 24 -9 30 3 5 -2 4
-11 -4 -17 -13 -23 -6 -18 22 2 13 -11 8 -26 -10 -8 -10 -12 -13 -9 -7 3 7 -2
18 -11 25 -14 12 -16 12 -8 0 6 -11 3 -13 -16 -7 -13 4 -34 8 -46 9 -12 1 -19
5 -16 10 3 5 -4 6 -17 2 -14 -4 -20 -3 -16 3 6 10 -23 26 -32 17 -3 -3 0 -5 6
-5 7 0 12 -4 12 -9 0 -15 -81 -6 -91 10 -6 10 -9 8 -9 -11 0 -19 -2 -22 -9
-10 -6 8 -7 18 -4 24 3 5 1 6 -6 2 -6 -4 -9 -12 -6 -17 4 -5 -1 -9 -10 -9 -9
0 -14 4 -11 9 7 11 -14 20 -31 14 -7 -2 -9 -12 -6 -20 5 -13 2 -12 -13 3 -13
12 -16 22 -10 26 8 5 8 8 1 8 -6 0 -17 -6 -24 -12 -11 -11 -13 -9 -8 10 4 19
3 21 -9 11 -11 -9 -14 -9 -14 0 0 7 -4 9 -10 6 -5 -3 -10 -2 -10 4 0 6 -7 8
-15 5 -8 -4 -22 -1 -30 6 -12 10 -13 16 -3 29 8 10 5 9 -10 -3 -23 -20 -30
-32 -12 -21 6 3 10 1 10 -5 0 -18 -23 -6 -26 14 -4 26 -14 33 -15 10 -1 -10 0
-23 1 -29 1 -5 -2 -6 -7 -2 -4 5 -8 18 -8 29 0 12 -7 22 -18 24 -9 1 -15 -2
-11 -7 3 -5 11 -6 17 -2 7 4 6 0 -2 -10 -15 -19 -26 -23 -15 -5 5 7 2 9 -9 5
-12 -4 -14 -2 -10 10 4 10 2 14 -4 10 -6 -4 -13 -2 -15 5 -3 7 -7 5 -11 -6 -5
-11 -3 -15 5 -10 7 4 8 3 4 -5 -4 -6 -12 -9 -17 -5 -5 3 -6 11 -2 17 4 7 -2 5
-12 -3 -17 -13 -18 -13 -13 0 4 11 -1 15 -17 15 -14 0 -21 -5 -18 -12z m-170
-27 c0 -8 -6 -12 -15 -9 -11 5 -11 7 0 14 7 5 13 9 14 9 0 0 1 -6 1 -14z m-35
-14 c9 -9 9 -12 0 -12 -7 0 -12 5 -12 11 0 8 -4 8 -13 0 -10 -8 -14 -7 -14 3
0 16 22 15 39 -2z m-392 -84 c0 -6 -6 -5 -15 2 -8 7 -15 14 -15 16 0 2 7 1 15
-2 8 -4 15 -11 15 -16z m1220 -14 c0 -8 -19 -13 -24 -6 -3 5 1 9 9 9 8 0 15
-2 15 -3z m-1516 -18 c-7 -19 -32 -28 -40 -14 -4 6 -3 8 3 5 6 -4 16 0 23 8
16 19 21 19 14 1z m-484 -266 c0 -5 -5 -10 -11 -10 -5 0 -7 5 -4 10 3 6 8 10
11 10 2 0 4 -4 4 -10z m-243 -235 c0 -8 -4 -12 -9 -9 -5 3 -6 10 -3 15 9 13
12 11 12 -6z m2528 -375 c3 -6 -1 -7 -9 -4 -18 7 -21 14 -7 14 6 0 13 -4 16
-10z m51 -17 c-6 -6 -36 9 -36 18 0 5 9 4 20 -3 10 -7 18 -14 16 -15z m-2941
-22 c3 -5 2 -12 -3 -15 -5 -3 -9 1 -9 9 0 17 3 19 12 6z m3345 -36 c0 -8 -4
-15 -10 -15 -5 0 -7 7 -4 15 4 8 8 15 10 15 2 0 4 -7 4 -15z m219 -68 c8 -10
7 -14 -2 -14 -8 0 -14 6 -14 14 0 7 1 13 2 13 2 0 8 -6 14 -13z m-199 -121 c0
-2 -7 -7 -16 -10 -8 -3 -12 -2 -9 4 6 10 25 14 25 6z m127 -11 c0 -8 -4 -12
-9 -9 -4 3 -8 9 -8 15 0 5 4 9 8 9 5 0 9 -7 9 -15z m88 -54 c-3 -2 1 -11 7
-20 8 -10 3 -8 -12 4 -14 11 -27 21 -29 22 -2 1 6 1 17 0 12 0 19 -3 17 -6z
m-4035 -45 c0 -2 -7 -7 -16 -10 -8 -3 -12 -2 -9 4 6 10 25 14 25 6z m3635
-115 c-6 -5 -25 10 -25 20 0 5 6 4 14 -3 8 -7 12 -15 11 -17z m-936 -17 c-6
-8 -15 -12 -18 -8 -3 4 0 9 7 11 6 3 9 10 6 15 -4 7 -2 8 5 4 9 -6 9 -11 0
-22z m1156 6 c3 -6 -1 -7 -9 -4 -18 7 -21 14 -7 14 6 0 13 -4 16 -10z m-670
-19 c-3 -6 -11 -11 -16 -11 -5 0 -4 6 3 14 14 16 24 13 13 -3z m142 -16 c0 -8
-4 -12 -9 -9 -5 3 -6 10 -3 15 9 13 12 11 12 -6z m13 -35 c0 -5 -4 -10 -10
-10 -5 0 -10 5 -10 10 0 6 5 10 10 10 6 0 10 -4 10 -10z m434 -55 c-4 -8 -8
-15 -10 -15 -2 0 -4 7 -4 15 0 8 4 15 10 15 5 0 7 -7 4 -15z m-803 -15 c-15
-9 -11 -31 9 -48 13 -11 12 -12 -6 -3 -19 9 -22 21 -15 64 0 5 6 5 12 1 8 -5
8 -8 0 -14z m896 5 c0 -8 -4 -12 -9 -9 -5 3 -6 10 -3 15 9 13 12 11 12 -6z
m-568 -107 c-6 -10 -14 -16 -19 -13 -13 8 -2 32 15 32 10 0 11 -5 4 -19z
m-739 -3 c-7 -9 -15 -13 -19 -10 -3 3 1 10 9 15 21 14 24 12 10 -5z m3725
-1181 c-11 -8 -19 -20 -17 -25 1 -6 -2 -8 -7 -5 -5 4 -11 0 -14 -6 -2 -7 -7
-10 -11 -7 -8 8 44 59 59 59 5 0 1 -8 -10 -16z m-3286 -195 c21 -29 21 -29 2
-17 -12 7 -21 18 -21 25 0 6 -6 14 -12 16 -7 3 -8 6 -2 6 5 1 20 -13 33 -30z
m3061 21 c0 -5 -5 -10 -11 -10 -5 0 -7 5 -4 10 3 6 8 10 11 10 2 0 4 -4 4 -10z
m-2995 -90 c3 -6 -1 -7 -9 -4 -18 7 -21 14 -7 14 6 0 13 -4 16 -10z m2588
-166 c-7 -3 -9 -13 -6 -22 4 -14 3 -14 -5 -2 -12 16 -7 30 11 29 9 0 9 -2 0
-5z m-2173 -118 c0 -2 -8 -10 -17 -17 -16 -13 -17 -12 -4 4 13 16 21 21 21 13z
m65 -36 c3 -5 1 -10 -4 -10 -6 0 -11 5 -11 10 0 6 2 10 4 10 3 0 8 -4 11 -10z
m1795 0 c0 -5 -5 -10 -11 -10 -5 0 -7 5 -4 10 3 6 8 10 11 10 2 0 4 -4 4 -10z
m-1757 -35 c-7 -21 -12 -19 -10 4 0 11 5 18 9 15 4 -3 5 -11 1 -19z m1687 15
c0 -5 -5 -10 -11 -10 -5 0 -7 5 -4 10 3 6 8 10 11 10 2 0 4 -4 4 -10z m-223
-75 c4 -4 3 -5 -4 -2 -6 4 -13 2 -15 -5 -3 -8 -6 -6 -10 4 -7 17 15 19 29 3z
m-107 -25 c0 -5 -4 -10 -10 -10 -5 0 -10 5 -10 10 0 6 5 10 10 10 6 0 10 -4
10 -10z m-670 -66 c0 -2 -7 -4 -15 -4 -8 0 -15 4 -15 10 0 5 7 7 15 4 8 -4 15
-8 15 -10z m310 1 c-7 -9 -15 -13 -19 -10 -3 3 1 10 9 15 21 14 24 12 10 -5z
m35 -5 c3 -5 1 -10 -4 -10 -6 0 -11 5 -11 10 0 6 2 10 4 10 3 0 8 -4 11 -10z"/>
<path d="M2280 5569 c0 -5 5 -7 10 -4 6 3 10 8 10 11 0 2 -4 4 -10 4 -5 0 -10
-5 -10 -11z"/>
<path d="M1963 5526 c-10 -11 -9 -15 2 -20 10 -4 15 1 15 14 0 23 -1 24 -17 6z"/>
<path d="M2051 5524 c0 -11 3 -14 6 -6 3 7 2 16 -1 19 -3 4 -6 -2 -5 -13z"/>
<path d="M3095 5530 c3 -5 8 -10 11 -10 2 0 4 5 4 10 0 6 -5 10 -11 10 -5 0
-7 -4 -4 -10z"/>
<path d="M3260 5521 c0 -6 4 -13 10 -16 6 -3 7 1 4 9 -7 18 -14 21 -14 7z"/>
<path d="M1547 5405 c3 -8 9 -12 14 -9 12 7 11 11 -5 17 -10 4 -13 1 -9 -8z"/>
<path d="M1490 5375 c-7 -9 -20 -13 -29 -10 -8 3 -12 3 -8 -1 4 -4 1 -14 -6
-22 -10 -13 -9 -14 3 -7 8 4 23 15 32 23 9 7 21 11 27 7 7 -3 8 0 5 9 -8 20
-9 20 -24 1z"/>
<path d="M3500 5360 c0 -5 7 -7 15 -4 8 4 15 8 15 10 0 2 -7 4 -15 4 -8 0 -15
-4 -15 -10z"/>
<path d="M1375 5320 c-3 -5 -1 -10 4 -10 6 0 11 5 11 10 0 6 -2 10 -4 10 -3 0
-8 -4 -11 -10z"/>
<path d="M3630 5246 c0 -2 7 -7 16 -10 8 -3 12 -2 9 4 -6 10 -25 14 -25 6z"/>
<path d="M3662 5059 c-15 -23 -15 -29 -1 -29 5 0 8 4 4 9 -3 6 2 14 11 19 9 5
12 12 7 15 -5 3 -14 -3 -21 -14z"/>
<path d="M3545 5040 c3 -5 8 -10 11 -10 2 0 4 5 4 10 0 6 -5 10 -11 10 -5 0
-7 -4 -4 -10z"/>
<path d="M1010 5016 c0 -2 7 -7 16 -10 8 -3 12 -2 9 4 -6 10 -25 14 -25 6z"/>
<path d="M3490 4895 c-7 -9 -11 -17 -9 -20 3 -2 10 5 17 15 14 24 10 26 -8 5z"/>
<path d="M3926 4542 c-3 -5 1 -9 9 -9 8 0 15 4 15 9 0 4 -4 8 -9 8 -6 0 -12
-4 -15 -8z"/>
<path d="M4240 4366 c0 -2 6 -9 13 -15 10 -8 14 -7 14 4 0 8 -6 15 -14 15 -7
0 -13 -2 -13 -4z"/>
<path d="M3996 4278 c3 -5 10 -6 15 -3 13 9 11 12 -6 12 -8 0 -12 -4 -9 -9z"/>
<path d="M3020 4199 c0 -5 5 -7 10 -4 6 3 10 8 10 11 0 2 -4 4 -10 4 -5 0 -10
-5 -10 -11z"/>
<path d="M4005 4200 c-3 -5 -1 -10 4 -10 6 0 11 5 11 10 0 6 -2 10 -4 10 -3 0
-8 -4 -11 -10z"/>
<path d="M3160 4078 c-10 -22 -10 -22 4 -4 8 10 20 15 27 10 8 -4 10 -3 5 4
-11 18 -24 14 -36 -10z"/>
<path d="M2846 4032 c-2 -4 -1 -14 4 -22 7 -11 9 -9 7 8 -1 24 -3 26 -11 14z"/>
<path d="M2830 3970 c-9 -6 -10 -10 -3 -10 6 0 15 5 18 10 8 12 4 12 -15 0z"/>
<path d="M2727 3719 c7 -7 15 -10 18 -7 3 3 -2 9 -12 12 -14 6 -15 5 -6 -5z"/>
<path d="M2760 3300 c-13 -8 -13 -10 2 -10 9 0 20 5 23 10 8 13 -5 13 -25 0z"/>
<path d="M2766 3268 c3 -5 10 -6 15 -3 13 9 11 12 -6 12 -8 0 -12 -4 -9 -9z"/>
<path d="M2801 3154 c6 -7 16 -11 21 -8 11 7 3 17 -18 20 -12 2 -13 -1 -3 -12z"/>
<path d="M3025 2680 c-3 -6 1 -7 9 -4 18 7 21 14 7 14 -6 0 -13 -4 -16 -10z"/>
<path d="M6120 2421 c0 -7 -5 -9 -12 -5 -7 5 -8 3 -3 -6 6 -10 4 -12 -11 -6
-15 6 -17 5 -6 -5 10 -11 15 -10 29 4 9 9 14 20 10 23 -4 4 -7 2 -7 -5z"/>
<path d="M3433 2265 c0 -8 4 -12 9 -9 5 3 6 10 3 15 -9 13 -12 11 -12 -6z"/>
<path d="M3475 2220 c3 -5 8 -10 11 -10 2 0 4 5 4 10 0 6 -5 10 -11 10 -5 0
-7 -4 -4 -10z"/>
<path d="M3625 2130 c-3 -6 1 -7 9 -4 18 7 21 14 7 14 -6 0 -13 -4 -16 -10z"/>
<path d="M3826 2038 c3 -4 9 -8 15 -8 5 0 9 4 9 8 0 5 -7 9 -15 9 -8 0 -12 -4
-9 -9z"/>
<path d="M5165 1999 c-4 -6 -5 -12 -2 -15 2 -3 7 2 10 11 7 17 1 20 -8 4z"/>
<path d="M4990 1965 c0 -5 5 -17 10 -25 5 -8 10 -10 10 -5 0 6 -5 17 -10 25
-5 8 -10 11 -10 5z"/>
<path d="M4575 1920 c-3 -5 -1 -10 4 -10 6 0 11 5 11 10 0 6 -2 10 -4 10 -3 0
-8 -4 -11 -10z"/>
<path d="M4667 1919 c7 -7 15 -10 18 -7 3 3 -2 9 -12 12 -14 6 -15 5 -6 -5z"/>
<path d="M4700 1899 c0 -5 5 -7 10 -4 6 3 10 8 10 11 0 2 -4 4 -10 4 -5 0 -10
-5 -10 -11z"/>
</g>
</svg>
