<svg width="191" height="41" viewBox="0 0 191 41" fill="none" xmlns="http://www.w3.org/2000/svg">
<g clip-path="url(#clip0_45_17480)">
<path d="M181.798 36.8036H154.927C153.253 36.8036 151.893 35.442 151.893 33.7684V6.89799C151.893 5.22439 153.254 3.86279 154.927 3.86279H181.798C183.472 3.86279 184.833 5.22439 184.833 6.89799V33.7684C184.833 35.442 183.471 36.8036 181.798 36.8036Z" fill="url(#paint0_linear_45_17480)"/>
<path d="M176.696 12.1865H174.137V28.6801H176.696V12.1865Z" fill="white"/>
<path d="M178.597 12.1865H177.703V28.6801H178.597V12.1865Z" fill="white"/>
<path fill-rule="evenodd" clip-rule="evenodd" d="M164.65 12.1865H164.585H162.37L156.367 28.6801H158.582L163.51 15.1377L163.951 16.3497L159.463 28.6801H160.522L164.48 17.8033L168.439 28.6801H170.653" fill="white"/>
<path fill-rule="evenodd" clip-rule="evenodd" d="M165.615 12.1865L171.618 28.6801H172.676L166.673 12.1865H165.615Z" fill="white"/>
<path d="M25.0608 14.8491H19.9152L13.0416 20.8587C12.4904 21.3099 12.0144 21.7603 11.6144 22.2115L14.8824 6.73633H11.1264L5.56641 33.0283H9.28481L10.524 27.0939L13.0232 24.9883L17.548 33.0283H21.98L15.7968 22.6523L25.06 14.8491H25.0608Z" fill="white"/>
<path d="M27.4269 14.8491L24.2373 29.9859H24.2349L23.5957 33.0283H27.3141L31.1829 14.8491H29.3797H27.4269Z" fill="white"/>
<path d="M28.891 7.44971L27.9902 11.6561H32.1214L33.0606 7.44971H28.891Z" fill="white"/>
<path d="M42.9764 14.2485C40.998 14.2485 39.226 14.7245 37.662 15.6757C36.0964 16.6277 34.8692 17.9669 33.9812 19.6949C33.0924 21.4229 32.6484 23.3757 32.6484 25.5541C32.6484 27.2069 32.986 28.6405 33.6628 29.8549C34.3388 31.0693 35.2964 32.0021 36.5356 32.6533C37.7748 33.3045 39.2084 33.6301 40.8364 33.6301C42.4644 33.6301 43.7724 33.3677 44.9868 32.8413C46.2004 32.3157 47.2084 31.5645 48.01 30.5877C48.8108 29.6109 49.362 28.4469 49.6628 27.0949H45.8316C45.506 28.1973 44.9116 29.0733 44.0476 29.7245C43.1836 30.3757 42.1756 30.7013 41.0244 30.7013C40.0724 30.7013 39.2524 30.4821 38.5644 30.0437C37.8756 29.6053 37.3436 28.9917 36.9676 28.2029C36.5916 27.4141 36.4044 26.4941 36.4044 25.4421C36.4044 23.9645 36.6676 22.6005 37.1932 21.3485C37.7188 20.0965 38.4828 19.0949 39.4844 18.3437C40.486 17.5925 41.6252 17.2165 42.9028 17.2165C44.1804 17.2165 45.2372 17.6173 45.926 18.4181C46.6148 19.2197 46.946 20.3341 46.9212 21.7605H50.5644C50.614 19.3565 49.9692 17.5037 48.63 16.2021C47.2908 14.9005 45.406 14.2493 42.9772 14.2493L42.9764 14.2485Z" fill="white"/>
<path d="M71.108 14.8491H65.9624L59.0888 20.8587C58.5376 21.3099 58.0616 21.7603 57.6616 22.2115L60.9296 6.73633H57.1736L51.6152 33.0283H55.3336L56.5728 27.0939L59.072 24.9883L63.5968 33.0283H68.0288L61.8456 22.6523L71.1088 14.8491H71.108Z" fill="white"/>
<path d="M75.8415 17.7788C76.4175 17.3284 77.2183 17.1028 78.2455 17.1028C79.4975 17.1028 80.4671 17.422 81.1567 18.0604C81.8455 18.6988 82.2271 19.6068 82.3023 20.7836H85.9831C85.9079 18.7308 85.2127 17.1276 83.8983 15.9756C82.5831 14.8244 80.7615 14.2476 78.4335 14.2476C77.0311 14.2476 75.7911 14.486 74.7151 14.9612C73.6383 15.4372 72.8119 16.0948 72.2359 16.9332C71.6591 17.7724 71.3719 18.7052 71.3719 19.7316C71.3719 20.9844 71.7599 22.0108 72.5367 22.8116C73.3127 23.6132 74.4647 24.2764 75.9927 24.802L78.3959 25.5532C79.3727 25.854 80.0671 26.198 80.4807 26.586C80.8943 26.9748 81.1007 27.482 81.1007 28.1076C81.1007 28.934 80.7439 29.5852 80.0303 30.0604C79.3167 30.5364 78.3959 30.774 77.2695 30.774C75.9175 30.774 74.8591 30.3924 74.0959 29.6284C73.3319 28.8652 72.9503 27.8068 72.9503 26.4548H69.2695C69.2695 27.9076 69.5887 29.178 70.2271 30.2668C70.8655 31.3556 71.7791 32.1884 72.9687 32.7644C74.1583 33.3404 75.5663 33.6284 77.1943 33.6284C78.7215 33.6284 80.0487 33.3844 81.1759 32.8964C82.3031 32.4084 83.1727 31.7196 83.7863 30.83C84.3991 29.9412 84.7063 28.9084 84.7063 27.7316C84.7063 26.43 84.2743 25.378 83.4103 24.5764C82.5463 23.7756 81.4007 23.1364 79.9735 22.6604L77.3439 21.834C76.5175 21.5588 75.9167 21.2396 75.5407 20.8764C75.1647 20.514 74.9775 20.0444 74.9775 19.4676C74.9775 18.7916 75.2647 18.2276 75.8415 17.7772V17.7788Z" fill="white"/>
<path d="M95.0359 17.8914H99.0551L99.6935 14.849H95.7119L97.0263 8.61377H93.3079L91.9935 14.849H88.3127L87.6367 17.8914H91.3175L89.3271 27.2066C89.0511 28.509 89.0455 29.6482 89.3087 30.6242C89.5719 31.601 90.0847 32.3522 90.8487 32.8778C91.6119 33.4034 92.5951 33.6666 93.7975 33.6666C94.1975 33.6666 94.5607 33.6418 94.8863 33.5914C95.2111 33.541 95.4991 33.4786 95.7503 33.4034L96.4263 30.3234C95.9751 30.3986 95.5495 30.4362 95.1495 30.4362C94.4735 30.4362 93.9599 30.3298 93.6095 30.117C93.2583 29.905 93.0335 29.5914 92.9335 29.1778C92.8327 28.765 92.8583 28.2202 93.0087 27.5442L95.0367 17.8914H95.0359Z" fill="white"/>
<path d="M113.028 15.1501C111.901 14.5493 110.524 14.2485 108.896 14.2485C107.418 14.2485 106.103 14.4925 104.952 14.9805C103.8 15.4685 102.886 16.1517 102.21 17.0277C101.534 17.9045 101.096 18.9189 100.896 20.0701H104.802C104.952 19.1941 105.39 18.4805 106.117 17.9293C106.843 17.3789 107.781 17.1029 108.934 17.1029C109.936 17.1029 110.749 17.3469 111.376 17.8357C112.001 18.3237 112.315 18.9813 112.315 19.8077C112.315 20.2085 112.24 20.5461 112.089 20.8221C111.94 21.0981 111.695 21.3229 111.357 21.4981C111.019 21.6733 110.562 21.7869 109.986 21.8365L106.305 22.1741C104.252 22.3493 102.53 22.9253 101.141 23.9021C99.751 24.8789 99.0566 26.2941 99.0566 28.1461C99.0566 29.2229 99.319 30.1805 99.8454 31.0197C100.371 31.8589 101.085 32.5029 101.986 32.9541C102.888 33.4045 103.877 33.6301 104.953 33.6301C106.105 33.6301 107.125 33.4045 108.014 32.9541C108.903 32.5029 109.661 31.8653 110.287 31.0381C110.212 31.2637 110.142 31.4957 110.081 31.7333C110.018 31.9717 109.961 32.2157 109.912 32.4661L109.799 33.0293H113.329L115.696 21.9493C116.021 20.3717 115.94 18.9949 115.452 17.8173C114.964 16.6405 114.156 15.7517 113.029 15.1509L113.028 15.1501ZM111.112 26.3053C110.911 27.1573 110.561 27.9269 110.061 28.6149C109.56 29.3037 108.933 29.8357 108.182 30.2117C107.431 30.5877 106.654 30.7749 105.853 30.7749C104.927 30.7749 104.188 30.5373 103.637 30.0613C103.086 29.5861 102.811 28.9221 102.811 28.0709C102.811 27.0445 103.211 26.2933 104.013 25.8173C104.813 25.3421 105.915 25.0165 107.318 24.8405L109.459 24.5397C109.96 24.5149 110.41 24.4397 110.812 24.3141C111.212 24.1893 111.488 24.0389 111.638 23.8629L111.113 26.3045L111.112 26.3053Z" fill="white"/>
<path d="M130.267 14.2484C129.09 14.2484 128.032 14.5676 127.094 15.206C126.154 15.8444 125.31 16.778 124.558 18.0044C124.634 17.7788 124.696 17.5668 124.746 17.366C124.796 17.166 124.846 16.966 124.897 16.7652C124.922 16.59 124.953 16.4332 124.99 16.2956C125.028 16.158 125.059 16.014 125.085 15.8636L125.273 14.8492H121.554L117.686 33.0284H121.404L123.394 23.6756C123.67 22.4236 124.095 21.3788 124.671 20.5388C125.247 19.7004 125.93 19.0684 126.718 18.642C127.507 18.2164 128.377 18.0036 129.329 18.0036C129.804 18.0036 130.306 18.054 130.831 18.154L131.658 14.398C131.257 14.298 130.794 14.2476 130.268 14.2476L130.267 14.2484Z" fill="white"/>
<path d="M138.944 17.8914H142.963L143.602 14.849H139.62L140.935 8.61377H137.217L135.902 14.849H132.221L131.545 17.8914H135.226L133.235 27.2066C132.959 28.509 132.954 29.6482 133.217 30.6242C133.48 31.601 133.993 32.3522 134.757 32.8778C135.52 33.4034 136.503 33.6666 137.706 33.6666C138.106 33.6666 138.469 33.6418 138.795 33.5914C139.119 33.541 139.407 33.4786 139.659 33.4034L140.335 30.3234C139.883 30.3986 139.458 30.4362 139.058 30.4362C138.382 30.4362 137.868 30.3298 137.518 30.117C137.167 29.905 136.942 29.5914 136.842 29.1778C136.741 28.765 136.767 28.2202 136.917 27.5442L138.945 17.8914H138.944Z" fill="white"/>
</g>
<defs>
<linearGradient id="paint0_linear_45_17480" x1="152.905" y1="4.39719" x2="183.101" y2="35.5276" gradientUnits="userSpaceOnUse">
<stop offset="0.02" stop-color="#0000FF"/>
<stop offset="0.07" stop-color="#0E05F0"/>
<stop offset="0.33" stop-color="#62269C"/>
<stop offset="0.57" stop-color="#A54059"/>
<stop offset="0.77" stop-color="#D65328"/>
<stop offset="0.92" stop-color="#F35F0B"/>
<stop offset="1" stop-color="#FF6400"/>
</linearGradient>
<clipPath id="clip0_45_17480">
<rect width="190.4" height="40" fill="white" transform="translate(0 0.333008)"/>
</clipPath>
</defs>
</svg>
