<svg width="21" height="18" viewBox="0 0 21 18" fill="none" xmlns="http://www.w3.org/2000/svg">
<path d="M5.75943 4.1728L7.12923 5.457C7.16861 5.49391 7.23017 5.49292 7.26834 5.45475L9.11337 3.60973C9.17637 3.54673 9.28408 3.59135 9.28408 3.68044V11.2022C9.28408 11.2574 9.32885 11.3022 9.38408 11.3022H11.2683C11.3235 11.3022 11.3683 11.2574 11.3683 11.2022V3.68044C11.3683 3.59135 11.476 3.54674 11.539 3.60973L13.384 5.45477C13.4222 5.49293 13.4838 5.49392 13.5231 5.45701L14.8929 4.17282C14.9342 4.13418 14.9352 4.0691 14.8953 4.02915L11.3683 0.502167C10.5346 -0.407306 9.63145 0.12322 9.28408 0.502167L5.75711 4.02914C5.71716 4.06909 5.71821 4.13417 5.75943 4.1728Z" fill="#E1E1E1"/>
<path d="M3.97166 16.4206C3.24087 17.3837 2.09704 17.9995 0.794332 17.9995C0.349506 17.9995 0 17.6522 0 17.2101C0 16.768 0.349506 16.4206 0.794332 16.4206C2.11292 16.4206 3.17733 15.3627 3.17733 14.0522C3.17733 13.6101 3.52683 13.2627 3.97166 13.2627C4.41649 13.2627 4.76599 13.6101 4.76599 14.0522C4.76599 15.3627 5.8304 16.4206 7.14899 16.4206C8.46758 16.4206 9.53198 15.3627 9.53198 14.0522C9.53198 13.6101 9.88149 13.2627 10.3263 13.2627C10.7711 13.2627 11.1206 13.6101 11.1206 14.0522C11.1206 15.3627 12.1851 16.4206 13.5036 16.4206C14.8222 16.4206 15.8866 15.3627 15.8866 14.0522C15.8866 13.6101 16.2361 13.2627 16.681 13.2627C17.1258 13.2627 17.4753 13.6101 17.4753 14.0522C17.4753 15.3627 18.5397 16.4206 19.8583 16.4206C20.3031 16.4206 20.6526 16.768 20.6526 17.2101C20.6526 17.6522 20.3031 17.9995 19.8583 17.9995C18.5556 17.9995 17.4118 17.3837 16.681 16.4206C15.9502 17.3837 14.8063 17.9995 13.5036 17.9995C12.2009 17.9995 11.0571 17.3837 10.3263 16.4206C9.59553 17.3837 8.45169 17.9995 7.14899 17.9995C5.84628 17.9995 4.70245 17.3837 3.97166 16.4206Z" fill="#E1E1E1"/>
</svg>
