<svg width="158" height="52" viewBox="0 0 158 52" fill="none" xmlns="http://www.w3.org/2000/svg">
<path d="M155.148 52H131.492C130.018 52 128.82 50.8013 128.82 49.3279V25.6721C128.82 24.1987 130.019 23 131.492 23H155.148C156.622 23 157.82 24.1987 157.82 25.6721V49.3279C157.82 50.8013 156.621 52 155.148 52Z" fill="url(#paint0_linear_1041_13868)"/>
<path d="M150.656 30.3262H148.403V44.8466H150.656V30.3262Z" fill="white"/>
<path d="M152.333 30.3262H151.546V44.8466H152.333V30.3262Z" fill="white"/>
<path fill-rule="evenodd" clip-rule="evenodd" d="M140.054 30.3262H139.996H138.047L132.762 44.8466H134.711L139.05 32.9243L139.438 33.9913L135.487 44.8466H136.419L139.904 35.271L143.39 44.8466H145.338" fill="white"/>
<path fill-rule="evenodd" clip-rule="evenodd" d="M140.903 30.3262L146.188 44.8466H147.119L141.834 30.3262H140.903Z" fill="white"/>
<path d="M17.1622 32.6754H12.6322L6.58092 37.9661C6.09566 38.3633 5.67661 38.7598 5.32446 39.1571L8.2015 25.5332H4.89484L0 48.6798H3.27356L4.36451 43.4554L6.56472 41.6017L10.5482 48.6798H14.45L9.00651 39.5451L17.1615 32.6754H17.1622Z" fill="white"/>
<path d="M19.241 32.6758L16.433 46.0017H16.4309L15.8682 48.6802H19.1417L22.5477 32.6758H20.9602H19.241Z" fill="white"/>
<path d="M20.5382 26.1602L19.7451 29.8633H23.3821L24.2089 26.1602H20.5382Z" fill="white"/>
<path d="M32.9333 32.1445C31.1915 32.1445 29.6315 32.5636 28.2546 33.401C26.8763 34.2391 25.7959 35.4181 25.0142 36.9394C24.2317 38.4606 23.8408 40.1798 23.8408 42.0976C23.8408 43.5527 24.138 44.8148 24.7339 45.8839C25.329 46.953 26.172 47.7742 27.263 48.3475C28.3539 48.9208 29.616 49.2075 31.0493 49.2075C32.4825 49.2075 33.634 48.9764 34.7031 48.513C35.7716 48.0503 36.659 47.389 37.3647 46.529C38.0697 45.6691 38.5549 44.6443 38.8197 43.4541H35.4469C35.1602 44.4246 34.6369 45.1958 33.8763 45.7691C33.1157 46.3424 32.2283 46.629 31.2148 46.629C30.3767 46.629 29.6548 46.4361 29.0491 46.0501C28.4427 45.6642 27.9743 45.124 27.6433 44.4295C27.3123 43.7351 27.1475 42.9252 27.1475 41.999C27.1475 40.6982 27.3792 39.4974 27.8419 38.3951C28.3046 37.2929 28.9772 36.4111 29.859 35.7498C30.7408 35.0885 31.7437 34.7575 32.8685 34.7575C33.9932 34.7575 34.9236 35.1103 35.53 35.8153C36.1364 36.521 36.428 37.5021 36.4061 38.7578H39.6135C39.6571 36.6414 39.0895 35.0103 37.9105 33.8644C36.7315 32.7185 35.0722 32.1452 32.934 32.1452L32.9333 32.1445Z" fill="white"/>
<path d="M57.7009 32.6754H53.1708L47.1196 37.9661C46.6343 38.3633 46.2152 38.7598 45.8631 39.1571L48.7401 25.5332H45.4335L40.54 48.6798H43.8136L44.9045 43.4554L47.1048 41.6017L51.0882 48.6798H54.99L49.5465 39.5451L57.7016 32.6754H57.7009Z" fill="white"/>
<path d="M61.8678 35.2533C62.3749 34.8568 63.0799 34.6582 63.9842 34.6582C65.0864 34.6582 65.94 34.9392 66.5471 35.5012C67.1535 36.0632 67.4895 36.8626 67.5557 37.8986H70.7961C70.7299 36.0914 70.1179 34.68 68.9607 33.6658C67.8029 32.6523 66.1992 32.1445 64.1497 32.1445C62.9151 32.1445 61.8234 32.3544 60.8762 32.7728C59.9282 33.1918 59.2006 33.7707 58.6936 34.5088C58.1858 35.2477 57.9329 36.0689 57.9329 36.9725C57.9329 38.0754 58.2745 38.979 58.9584 39.684C59.6415 40.3897 60.6557 40.9736 62.0009 41.4363L64.1166 42.0976C64.9766 42.3624 65.5879 42.6653 65.952 43.0069C66.3161 43.3491 66.4978 43.7957 66.4978 44.3464C66.4978 45.074 66.1837 45.6473 65.5555 46.0656C64.9273 46.4847 64.1166 46.6938 63.125 46.6938C61.9347 46.6938 61.0029 46.3579 60.331 45.6853C59.6584 45.0134 59.3225 44.0816 59.3225 42.8914H56.082C56.082 44.1703 56.363 45.2888 56.9251 46.2473C57.4871 47.2059 58.2914 47.939 59.3387 48.4461C60.386 48.9532 61.6255 49.2068 63.0588 49.2068C64.4033 49.2068 65.5717 48.9919 66.564 48.5623C67.5564 48.1327 68.322 47.5263 68.8621 46.7431C69.4016 45.9607 69.6721 45.0514 69.6721 44.0154C69.6721 42.8695 69.2918 41.9434 68.5311 41.2377C67.7705 40.5327 66.7619 39.9699 65.5055 39.5509L63.1905 38.8234C62.4629 38.5811 61.934 38.3001 61.603 37.9803C61.272 37.6613 61.1072 37.2478 61.1072 36.74C61.1072 36.1449 61.36 35.6484 61.8678 35.2519V35.2533Z" fill="white"/>
<path d="M78.765 35.3532H82.3034L82.8654 32.6748H79.3601L80.5173 27.1855H77.2437L76.0866 32.6748H72.8461L72.251 35.3532H75.4914L73.7391 43.554C73.4962 44.7006 73.4912 45.7035 73.723 46.5628C73.9547 47.4227 74.4061 48.0841 75.0787 48.5468C75.7506 49.0095 76.6162 49.2412 77.6747 49.2412C78.0269 49.2412 78.3466 49.2194 78.6333 49.175C78.9192 49.1306 79.1728 49.0757 79.3939 49.0095L79.9891 46.298C79.5918 46.3642 79.2171 46.3973 78.865 46.3973C78.2699 46.3973 77.8177 46.3036 77.5092 46.1163C77.2001 45.9296 77.0021 45.6535 76.9141 45.2894C76.8254 44.926 76.8479 44.4464 76.9803 43.8513L78.7657 35.3532H78.765Z" fill="white"/>
<path d="M94.6074 32.9383C93.6151 32.4093 92.403 32.1445 90.9697 32.1445C89.6689 32.1445 88.511 32.3593 87.4976 32.789C86.4834 33.2186 85.6791 33.82 85.0839 34.5912C84.4888 35.3632 84.1029 36.2562 83.9268 37.2697H87.3659C87.4976 36.4985 87.8835 35.8702 88.523 35.385C89.1625 34.9004 89.9887 34.6575 91.0035 34.6575C91.8853 34.6575 92.6016 34.8723 93.153 35.3026C93.7038 35.7322 93.9799 36.3111 93.9799 37.0387C93.9799 37.3915 93.9137 37.6887 93.7813 37.9317C93.6496 38.1747 93.4341 38.3726 93.1368 38.5268C92.8389 38.6811 92.4368 38.7811 91.9297 38.8248L88.6892 39.122C86.8813 39.2762 85.3657 39.7833 84.1423 40.6432C82.9189 41.5032 82.3076 42.7491 82.3076 44.3795C82.3076 45.3275 82.5386 46.1705 83.002 46.9093C83.4648 47.6481 84.093 48.2151 84.8867 48.6123C85.6805 49.0088 86.551 49.2075 87.499 49.2075C88.5125 49.2075 89.4111 49.0088 90.1936 48.6123C90.9761 48.2151 91.643 47.6538 92.1945 46.9255C92.1283 47.1242 92.067 47.3284 92.0128 47.5376C91.9579 47.7475 91.9079 47.9623 91.8642 48.1827L91.7649 48.6785H94.8729L96.9562 38.9241C97.2422 37.5352 97.171 36.3231 96.7414 35.2864C96.3118 34.2504 95.6005 33.4679 94.6088 32.939L94.6074 32.9383ZM92.9206 42.7589C92.7438 43.509 92.4354 44.1865 91.9952 44.7922C91.5543 45.3986 91.0028 45.867 90.3415 46.198C89.6802 46.529 88.9963 46.6938 88.2913 46.6938C87.4757 46.6938 86.825 46.4847 86.3404 46.0656C85.8551 45.6473 85.6129 45.0627 85.6129 44.3133C85.6129 43.4097 85.965 42.7484 86.6707 42.3293C87.3757 41.911 88.3455 41.6243 89.5809 41.4694L91.4656 41.2046C91.9064 41.1827 92.303 41.1165 92.6565 41.006C93.0087 40.8961 93.2516 40.7637 93.384 40.6087L92.9213 42.7582L92.9206 42.7589Z" fill="white"/>
<path d="M109.782 32.1452C108.745 32.1452 107.814 32.4262 106.988 32.9883C106.161 33.5503 105.417 34.3722 104.756 35.4519C104.822 35.2533 104.877 35.0666 104.921 34.8899C104.965 34.7138 105.009 34.5377 105.054 34.3609C105.075 34.2067 105.103 34.0687 105.136 33.9475C105.169 33.8264 105.197 33.6996 105.219 33.5672L105.385 32.6742H102.111L98.7051 48.6785H101.979L103.731 40.4446C103.973 39.3424 104.348 38.4226 104.855 37.6831C105.362 36.945 105.963 36.3886 106.657 36.0132C107.352 35.6385 108.117 35.4512 108.955 35.4512C109.374 35.4512 109.815 35.4956 110.278 35.5836L111.006 32.2769C110.653 32.1889 110.245 32.1445 109.782 32.1445L109.782 32.1452Z" fill="white"/>
<path d="M117.422 35.3532H120.961L121.523 32.6748H118.017L119.175 27.1855H115.902L114.744 32.6748H111.503L110.908 35.3532H114.149L112.396 43.554C112.153 44.7006 112.148 45.7035 112.38 46.5628C112.612 47.4227 113.063 48.0841 113.736 48.5468C114.408 49.0095 115.273 49.2412 116.332 49.2412C116.684 49.2412 117.004 49.2194 117.291 49.175C117.576 49.1306 117.83 49.0757 118.051 49.0095L118.646 46.298C118.249 46.3642 117.874 46.3973 117.522 46.3973C116.927 46.3973 116.475 46.3036 116.166 46.1163C115.857 45.9296 115.659 45.6535 115.571 45.2894C115.483 44.926 115.505 44.4464 115.638 43.8513L117.423 35.3532H117.422Z" fill="white"/>
<path d="M1.242 14V1.4H6.21C8.838 1.4 10.818 2.516 10.818 5.18C10.818 7.916 8.748 8.96 6.21 8.96H3.6V14H1.242ZM3.6 6.962H6.21C7.722 6.962 8.388 6.278 8.388 5.18C8.388 4.082 7.758 3.398 6.21 3.398H3.6V6.962ZM17.3348 14.324C13.9508 14.324 11.7728 11.678 11.7728 7.7C11.7728 3.794 13.9148 1.076 17.3348 1.076C20.7548 1.076 22.9328 3.83 22.9328 7.7C22.9328 11.678 20.7188 14.324 17.3348 14.324ZM14.2028 7.7C14.2028 10.508 15.4088 12.326 17.3348 12.326C19.2608 12.326 20.5028 10.526 20.5028 7.7C20.5028 4.928 19.3328 3.074 17.3348 3.074C15.3548 3.074 14.2028 4.91 14.2028 7.7ZM26.1312 14L23.7192 1.4H26.0952L27.3912 9.806C27.4992 10.454 27.5892 11.084 27.6792 11.84C27.7872 11.084 27.9132 10.454 28.0392 9.806L29.4792 2.84H32.3232L33.6732 9.806C33.8172 10.454 33.9252 11.102 34.0512 11.84C34.1412 11.084 34.2132 10.454 34.3212 9.806L35.6532 1.4H37.9032L35.5092 14H32.6112L31.1532 6.656C31.0812 6.242 30.9732 5.738 30.8832 5.072C30.7752 5.738 30.6852 6.242 30.5952 6.656L29.0112 14H26.1312ZM39.5297 14V1.4H48.2237V3.398H41.8877V6.476H47.9357V8.492H41.8877V12.002H48.4757V14H39.5297ZM50.3716 14V1.4H55.7176C58.0756 1.4 59.7676 2.516 59.7676 4.712C59.7676 6.44 58.5796 7.43 57.3736 7.79C58.8136 8.042 59.5696 9.086 59.5696 10.706V14H57.2116V10.922C57.2116 9.428 56.6716 8.888 55.1236 8.888H52.7296V14H50.3716ZM52.7296 6.872H55.2676C56.6536 6.872 57.3376 6.278 57.3376 5.144C57.3376 4.01 56.6536 3.398 55.2676 3.398H52.7296V6.872ZM61.8891 14V1.4H70.5831V3.398H64.2471V6.476H70.2951V8.492H64.2471V12.002H70.8351V14H61.8891ZM72.839 14V1.4H76.817C80.687 1.4 83.027 3.614 83.027 7.718C83.027 11.516 80.831 14 76.871 14H72.839ZM75.215 12.002H76.781C79.013 12.002 80.615 10.634 80.615 7.718C80.615 5 79.247 3.398 76.763 3.398H75.215V12.002ZM92.1038 14V1.4H97.0358C99.4658 1.4 101.338 2.3 101.338 4.586C101.338 6.152 100.15 6.998 98.8898 7.34C100.492 7.682 101.716 8.726 101.716 10.4C101.716 13.082 99.3218 14 96.7838 14H92.1038ZM94.4258 12.002H96.8738C98.5118 12.002 99.2858 11.372 99.2858 10.202C99.2858 8.942 98.5118 8.42 96.8738 8.42H94.4258V12.002ZM94.4258 6.476H96.7478C98.2598 6.476 98.9078 5.882 98.9078 4.874C98.9078 3.938 98.2598 3.398 96.7478 3.398H94.4258V6.476ZM106.541 14V8.96L102.257 1.4H105.011L107.189 5.684C107.387 6.044 107.585 6.476 107.783 6.908C107.963 6.476 108.161 6.044 108.341 5.684L110.555 1.4H113.219L108.917 8.96V14H106.541Z" fill="white"/>
<defs>
<linearGradient id="paint0_linear_1041_13868" x1="129.711" y1="23.4705" x2="156.296" y2="50.8766" gradientUnits="userSpaceOnUse">
<stop offset="0.02" stop-color="#0000FF"/>
<stop offset="0.07" stop-color="#0E05F0"/>
<stop offset="0.33" stop-color="#62269C"/>
<stop offset="0.57" stop-color="#A54059"/>
<stop offset="0.77" stop-color="#D65328"/>
<stop offset="0.92" stop-color="#F35F0B"/>
<stop offset="1" stop-color="#FF6400"/>
</linearGradient>
</defs>
</svg>
