<svg width="18" height="19" viewBox="0 0 18 19" fill="none" xmlns="http://www.w3.org/2000/svg">
<path d="M10.1258 12.8755V4.34129L12.3761 6.59157L13.9682 4.9995L9.79674 0.828036C9.69224 0.723424 9.56815 0.640435 9.43156 0.583813C9.29497 0.527191 9.14856 0.498047 9.0007 0.498047C8.85284 0.498047 8.70643 0.527191 8.56984 0.583813C8.43325 0.640435 8.30916 0.723424 8.20466 0.828036L4.0332 4.9995L5.62528 6.59157L7.87556 4.34129V12.8755H10.1258Z" fill="#E1E1E1"/>
<path d="M15.752 15.5105C15.2288 14.9086 14.4356 14 12.9391 14C11.4427 14 10.6495 14.9086 10.1263 15.5105C9.60308 16.1125 9.43993 16.2503 9.00113 16.2503C8.56232 16.2503 8.36824 16.0703 7.87599 15.5105C7.38374 14.9507 6.55957 14 5.06314 14C3.5667 14 2.77347 14.9086 2.25028 15.5105C1.72709 16.1125 1.56395 16.2503 1.12514 16.2503H0V18.5006H1.12514C2.62158 18.5006 3.4148 17.592 3.93799 16.9901C4.46118 16.3881 4.62714 16.2503 5.06314 16.2503C5.49913 16.2503 5.69603 16.4303 6.18828 16.9901C6.68053 17.5498 7.5075 18.5006 9.00113 18.5006C10.4948 18.5006 11.2908 17.592 11.814 16.9901C12.3372 16.3881 12.5031 16.2503 12.9391 16.2503C13.3751 16.2503 13.572 16.4303 14.0643 16.9901C14.5565 17.5498 15.3835 18.5006 16.8771 18.5006H18.0023V16.2503H16.8771C16.4411 16.2503 16.2442 16.0703 15.752 15.5105Z" fill="#E1E1E1"/>
</svg>
