<svg width="36" height="36" viewBox="0 0 36 36" fill="none" xmlns="http://www.w3.org/2000/svg">
<circle cx="18" cy="18" r="17.5" stroke="#E1E1E1"/>
<path d="M18.1 18C19.3276 18 20.5049 17.5259 21.3729 16.682C22.2409 15.8381 22.7286 14.6935 22.7286 13.5C22.7286 12.3065 22.2409 11.1619 21.3729 10.318C20.5049 9.47411 19.3276 9 18.1 9C16.8724 9 15.6951 9.47411 14.8271 10.318C13.9591 11.1619 13.4714 12.3065 13.4714 13.5C13.4714 14.6935 13.9591 15.8381 14.8271 16.682C15.6951 17.5259 16.8724 18 18.1 18ZM16.4475 19.6875C12.8856 19.6875 10 22.493 10 25.9559C10 26.5324 10.4809 27 11.074 27H25.126C25.7191 27 26.2 26.5324 26.2 25.9559C26.2 22.493 23.3144 19.6875 19.7525 19.6875H16.4475Z" fill="#E1E1E1"/>
</svg>
